<?xml version="1.0" encoding="UTF-8" standalone="no"?>
<svg
   xmlns:dc="http://purl.org/dc/elements/1.1/"
   xmlns:cc="http://creativecommons.org/ns#"
   xmlns:rdf="http://www.w3.org/1999/02/22-rdf-syntax-ns#"
   xmlns:svg="http://www.w3.org/2000/svg"
   xmlns="http://www.w3.org/2000/svg"
   id="svg8"
   version="1.1"
   viewBox="0 0 287.55515 204.16706"
   height="204.16705mm"
   width="287.55515mm">
  <defs
     id="defs2" />
  <metadata
     id="metadata5">
    <rdf:RDF>
      <cc:Work
         rdf:about="">
        <dc:format>image/svg+xml</dc:format>
        <dc:type
           rdf:resource="http://purl.org/dc/dcmitype/StillImage" />
        <dc:title></dc:title>
      </cc:Work>
    </rdf:RDF>
  </metadata>
  <g
     transform="translate(207.89987,-92.708704)"
     id="layer1">
    <path
       d="M 78.332363,94.031621 V 295.55284 H -206.57695 V 94.031621 Z"
       style="fill:none;stroke:#000000;stroke-width:2.64583325;stroke-linecap:butt;stroke-linejoin:miter;stroke-miterlimit:4;stroke-dasharray:none;stroke-opacity:1"
       id="path4569" />
    <path
       id="path4572"
       d="M -51.992556,93.653794 V 131.07344"
       style="fill:none;stroke:#000000;stroke-width:1.32291663;stroke-linecap:butt;stroke-linejoin:miter;stroke-miterlimit:4;stroke-dasharray:none;stroke-opacity:1" />
    <path
       transform="matrix(0.26458333,0,0,0.26458333,-211.12053,71.787872)"
       id="path4610"
       d="M 943.48225,291.57142 H 992.8571 V 84.428565"
       style="fill:none;stroke:#000000;stroke-width:5;stroke-linecap:butt;stroke-linejoin:miter;stroke-miterlimit:4;stroke-dasharray:none;stroke-opacity:1" />
    <path
       transform="matrix(0.26458333,0,0,0.26458333,-211.12053,71.787872)"
       id="path4599"
       d="M 792.50025,291.57142 H 900.55072"
       style="fill:none;stroke:#000000;stroke-width:5;stroke-linecap:butt;stroke-linejoin:miter;stroke-miterlimit:4;stroke-dasharray:none;stroke-opacity:1" />
    <path
       id="path4578"
       d="m 51.572913,148.93281 v 0 1.34234 h 1.606409 m 9.165922,0 h 16.187567"
       style="fill:none;stroke:#000000;stroke-width:1.32291663;stroke-linecap:butt;stroke-linejoin:miter;stroke-miterlimit:4;stroke-dasharray:none;stroke-opacity:1" />
    <path
       id="path4603"
       d="M -25.501846,148.95551 V 94.031621"
       style="fill:none;stroke:#000000;stroke-width:1.32291663;stroke-linecap:butt;stroke-linejoin:miter;stroke-miterlimit:4;stroke-dasharray:none;stroke-opacity:1" />
    <path
       id="path4612"
       d="M -12.396228,148.93281 H -51.89806 v -13.41815 h 26.080354"
       style="fill:none;stroke:#000000;stroke-width:1.32291663;stroke-linecap:butt;stroke-linejoin:miter;stroke-miterlimit:4;stroke-dasharray:none;stroke-opacity:1" />
    <path
       id="path4616"
       d="M 77.558774,186.58869 H 50.76972 v 40.63244 h 3.449021 v 3.77976 m 0,4.25223 v 2.4096 h -3.685252 v 49.18416"
       style="fill:none;stroke:#000000;stroke-width:1.32291663;stroke-linecap:butt;stroke-linejoin:miter;stroke-miterlimit:4;stroke-dasharray:none;stroke-opacity:1" />
    <path
       id="path4618"
       d="m -53.598951,186.35246 h 3.775582 m 23.118814,0 h 2.80633 m 22.4506405,0 h 3.2740517 m 22.9183618,0 -0.0082,-0.8977 h 14.930058 v 1.13393 m 0,4.06324 v 14.78832 m 0,4.44122 v 52.11347 h -2.362345 v 18.61533 H 8.9561082 v -7.37054 m -4.4412203,0 h -5.19717258 v 7.37054 H -51.850812 v -5.48066 l -23.812501,-0.15652 v 5.88967 m -5.197171,-0.11075 h -21.261166 m -4.77194,0 h -29.62389 v -20.12723 h 5.00819 v -1.03944 m 0,-4.25223 v -26.36384 h -5.10268 v -57.26339 m 0,-8.12649 v -14.41034 h 60.948658 v 1.27567 m 0,4.65799 v 4.55518 6.42559 m 0,6.04762 v 4.016 m 0,6.18936 v 4.016 h 14.977307"
       style="fill:none;stroke:#000000;stroke-width:1.32291663;stroke-linecap:butt;stroke-linejoin:miter;stroke-miterlimit:4;stroke-dasharray:none;stroke-opacity:1" />
    <path
       id="path4629"
       d="m -51.850814,275.12961 v -88.89"
       style="fill:none;stroke:#000000;stroke-width:1.32291663;stroke-linecap:butt;stroke-linejoin:miter;stroke-miterlimit:4;stroke-dasharray:none;stroke-opacity:1" />
    <path
       id="path4632"
       d="m -206.84422,234.34812 h 53.98845 v 18.30796 m 0,7.61719 v 35.0123"
       style="fill:none;stroke:#000000;stroke-width:1.32291663;stroke-linecap:butt;stroke-linejoin:miter;stroke-miterlimit:4;stroke-dasharray:none;stroke-opacity:1" />
    <path
       id="path4634"
       d="m -75.663313,186.35246 v 88.62063"
       style="fill:none;stroke:#000000;stroke-width:1.32291663;stroke-linecap:butt;stroke-linejoin:miter;stroke-miterlimit:4;stroke-dasharray:none;stroke-opacity:1" />
    <path
       id="path4636"
       d="M -75.663316,186.35246 H -136.65922"
       style="fill:none;stroke:#000000;stroke-width:1.32291663;stroke-linecap:butt;stroke-linejoin:miter;stroke-miterlimit:4;stroke-dasharray:none;stroke-opacity:1" />
    <path
       id="path4638"
       d="M -91.113091,186.25796 V 149.21629"
       style="fill:none;stroke:#000000;stroke-width:1.32291663;stroke-linecap:butt;stroke-linejoin:miter;stroke-miterlimit:4;stroke-dasharray:none;stroke-opacity:1" />
    <path
       id="path4640"
       d="M -75.616067,160.2721 H -91.207584"
       style="fill:none;stroke:#000000;stroke-width:1.32291663;stroke-linecap:butt;stroke-linejoin:miter;stroke-miterlimit:4;stroke-dasharray:none;stroke-opacity:1" />
    <path
       id="path4642"
       d="m 24.744825,186.35246 v 75.65806 l 12.559517,-0.0156"
       style="fill:none;stroke:#000000;stroke-width:1.32291663;stroke-linecap:butt;stroke-linejoin:miter;stroke-miterlimit:4;stroke-dasharray:none;stroke-opacity:1" />
    <path
       id="path4644"
       d="m -206.67931,227.83534 h 28.15923 v -42.61681"
       style="fill:none;stroke:#000000;stroke-width:1.32291663;stroke-linecap:butt;stroke-linejoin:miter;stroke-miterlimit:4;stroke-dasharray:none;stroke-opacity:1" />
    <path
       id="rect4650"
       d="m -163.61337,226.98488 h -9.37882 v -12.5677 h 20.26897 v 12.5677 h -5.01022"
       style="opacity:1;fill:none;stroke:#000000;stroke-width:1.32291663;stroke-miterlimit:4;stroke-dasharray:none;stroke-opacity:1" />
    <path
       id="path4653"
       d="m -152.72322,214.41718 v -66.33482 m 0,-7.74851 V 138.066 h -53.7671"
       style="fill:none;stroke:#000000;stroke-width:1.32291663;stroke-linecap:butt;stroke-linejoin:miter;stroke-miterlimit:4;stroke-dasharray:none;stroke-opacity:1" />
    <path
       id="path4655"
       d="m -206.8683,185.02954 h 17.99796 m 6.94901,0 h 6.01356 m 5.87993,0 h 17.39913"
       style="fill:none;stroke:#000000;stroke-width:1.32291663;stroke-linecap:butt;stroke-linejoin:miter;stroke-miterlimit:4;stroke-dasharray:none;stroke-opacity:1" />
    <path
       id="path4657"
       d="m -177.85862,138.16049 v -4.57298 m 0,-3.20723 v -1.85818 h 15.38114 m 4.27632,0 h 4.54668 V 93.831169"
       style="fill:none;stroke:#000000;stroke-width:1.32291663;stroke-linecap:butt;stroke-linejoin:miter;stroke-miterlimit:4;stroke-dasharray:none;stroke-opacity:1" />
    <path
       id="path4659"
       d="m -153.65448,128.5221 h 17.50305 V 94.165255"
       style="fill:none;stroke:#000000;stroke-width:1.32291663;stroke-linecap:butt;stroke-linejoin:miter;stroke-miterlimit:4;stroke-dasharray:none;stroke-opacity:1" />
    <path
       id="path4661"
       d="m -136.28506,126.97259 h 2.00452 m 3.67496,0 h 54.72343 V 93.964804"
       style="fill:none;stroke:#000000;stroke-width:1.32291663;stroke-linecap:butt;stroke-linejoin:miter;stroke-miterlimit:4;stroke-dasharray:none;stroke-opacity:1" />
    <path
       id="path4667"
       d="m 8.9561056,273.23973 v -3.26004 m 0,-4.34673 v -12.56771 m 0,-3.77976 v -5.85863 m 0,-9.11215 v -6.38487 H 24.405884"
       style="fill:none;stroke:#000000;stroke-width:1.32291663;stroke-linecap:butt;stroke-linejoin:miter;stroke-miterlimit:4;stroke-dasharray:none;stroke-opacity:1" />
    <path
       id="path4669"
       d="M 24.811643,238.82488 H 8.374567"
       style="fill:none;stroke:#000000;stroke-width:1.32291663;stroke-linecap:butt;stroke-linejoin:miter;stroke-miterlimit:4;stroke-dasharray:none;stroke-opacity:1" />
    <path
       id="path4671"
       d="M 24.744825,248.64704 H 8.9091051"
       style="fill:none;stroke:#000000;stroke-width:1.32291663;stroke-linecap:butt;stroke-linejoin:miter;stroke-miterlimit:4;stroke-dasharray:none;stroke-opacity:1" />
    <path
       id="path4673"
       d="m 24.744822,262.01052 v 3.34086 H 9.1095587"
       style="fill:none;stroke:#000000;stroke-width:1.32291663;stroke-linecap:butt;stroke-linejoin:miter;stroke-miterlimit:4;stroke-dasharray:none;stroke-opacity:1" />
    <g
       id="text4677"
       style="font-style:normal;font-weight:normal;font-size:21.66560936px;line-height:1.25;font-family:sans-serif;letter-spacing:0px;word-spacing:0px;fill:#000000;fill-opacity:1;stroke:none;stroke-width:0.54164022"
       transform="matrix(0.81202578,0.08529225,-0.12793953,1.2180497,0,0)"
       aria-label="JMTS">
      <path
         id="path4847"
         style="font-style:normal;font-variant:normal;font-weight:bold;font-stretch:normal;font-family:'Eras Demi ITC';-inkscape-font-specification:'Eras Demi ITC Bold';fill:#cc0000;fill-opacity:1;stroke-width:0.54164022"
         d="m -126.56418,195.22358 q -0.0635,-1.21658 -0.19042,-2.52836 1.15311,0.38084 1.809,0.51836 0.66647,0.13753 1.28005,0.13753 0.49721,0 0.96268,-0.13753 0.41257,-0.11636 0.72994,-0.30678 0.23274,-0.15869 0.39142,-0.34911 0.23274,-0.27505 0.38084,-0.63473 0.14811,-0.38084 0.23274,-1.03674 0.11637,-0.86747 0.201,-2.87746 0.0635,-1.57626 0.11637,-3.53336 0.0423,-1.63973 0.0423,-3.4593 1.25889,0.0212 1.61857,0.0212 0.42316,0 1.69263,-0.0212 l -0.28563,4.53835 q -0.0846,1.63973 -0.17984,4.49604 -0.0635,1.9571 -0.21158,2.67647 -0.10579,0.5501 -0.32795,0.97325 -0.201,0.38085 -0.4972,0.67706 -0.34911,0.33852 -0.84632,0.60299 -0.64531,0.34911 -1.37526,0.51837 -0.81457,0.201 -1.76667,0.201 -1.61858,0 -3.77668,-0.47605 z" />
      <path
         id="path4849"
         style="font-style:normal;font-variant:normal;font-weight:bold;font-stretch:normal;font-family:'Eras Demi ITC';-inkscape-font-specification:'Eras Demi ITC Bold';fill:#cc0000;fill-opacity:1;stroke-width:0.54164022"
         d="m -115.19185,195.45631 0.27506,-2.39083 0.6982,-8.39965 0.24332,-3.64973 q 1.51278,0.0212 2.21099,0.0212 0.56068,0 2.04173,-0.0212 0.16926,0.85689 0.25389,1.21658 0.0846,0.35968 0.32795,1.1531 0.24332,0.79342 0.62416,1.92536 0.56068,1.71378 1.00499,3.38525 l 0.804,3.02557 1.41757,-3.88246 2.06289,-5.04614 q 0.10579,-0.2539 0.21158,-0.58184 0.11637,-0.33853 0.38084,-1.19542 1.25889,0.0212 2.24273,0.0212 0.655892,0 2.094624,-0.0212 -0.148104,3.04673 -0.222157,6.73877 -0.07405,3.68146 -0.07405,5.50103 0,0.87805 0.02116,2.20041 -1.047312,-0.0212 -1.428153,-0.0212 -0.5501,0 -1.45989,0.0212 0.0635,-1.07904 0.0846,-1.77725 l 0.17984,-6.29445 q 0.0317,-1.33295 0.0317,-2.62357 l -0.0106,-0.8569 -3.90362,10.29328 -0.45489,1.25889 q -1.02615,-0.0212 -1.407,-0.0212 -0.47605,0 -1.49162,0.0212 l -1.81957,-6.5166 q -0.0952,-0.34911 -0.44432,-1.45989 l -0.65589,-2.1581 q -0.0952,-0.30679 -0.14811,-0.49721 -0.0423,-0.201 -0.201,-0.87805 l -0.13752,1.3541 q -0.0529,0.64531 -0.15869,2.1581 l -0.41257,6.55892 q -0.0212,0.48663 -0.0317,1.43873 l -1.36468,-0.0212 q -0.3491,0 -1.38584,0.0212 z" />
      <path
         id="path4851"
         style="font-style:normal;font-variant:normal;font-weight:bold;font-stretch:normal;font-family:'Eras Demi ITC';-inkscape-font-specification:'Eras Demi ITC Bold';fill:#cc0000;fill-opacity:1;stroke-width:0.54164022"
         d="m -92.637608,195.45631 0.232736,-3.08904 0.232736,-4.60182 0.148105,-4.52778 h -0.740524 l -0.687629,0.0106 -0.655892,0.0106 -2.443729,0.074 q 0.08463,-1.52336 0.09521,-2.31678 3.046726,0.0212 6.379083,0.0212 l 3.797829,-0.0106 2.031151,-0.0106 q -0.105789,1.49163 -0.105789,2.29562 -1.914783,-0.0952 -3.670883,-0.0952 h -0.814576 l -0.126947,1.93594 -0.306788,7.44756 -0.02116,1.24831 q -0.01058,0.77226 -0.01058,1.60799 l -1.607994,-0.0212 q -0.264473,0 -1.724363,0.0212 z" />
      <path
         id="path4853"
         style="font-style:normal;font-variant:normal;font-weight:bold;font-stretch:normal;font-family:'Eras Demi ITC';-inkscape-font-specification:'Eras Demi ITC Bold';fill:#cc0000;fill-opacity:1;stroke-width:0.54164022"
         d="m -83.60322,195.14953 q -0.08463,-1.608 -0.222157,-2.62357 2.073466,0.94152 3.766092,0.94152 0.67705,0 1.25889,-0.201 0.592419,-0.21158 0.867471,-0.58184 0.285631,-0.38084 0.285631,-0.84631 0,-0.35969 -0.126947,-0.64532 -0.190421,-0.39142 -0.634735,-0.81457 -0.613577,-0.58184 -2.189835,-1.91479 -0.751102,-0.64531 -1.036733,-0.92036 -0.634734,-0.603 -0.97326,-1.07905 -0.338525,-0.48663 -0.48663,-0.96268 -0.148104,-0.47605 -0.148104,-1.01558 0,-0.99441 0.550103,-1.86188 0.560682,-0.87805 1.660889,-1.36468 1.110786,-0.49721 2.792833,-0.49721 1.512784,0 3.406409,0.37026 0.05289,1.10021 0.211578,2.51778 -1.65031,-0.63474 -3.046726,-0.63474 -1.036734,0 -1.703205,0.47606 -0.655892,0.46547 -0.655892,1.08962 0,0.16927 0.04232,0.35969 0.04232,0.17984 0.126947,0.35968 0.08463,0.16926 0.29621,0.45489 0.222157,0.27505 0.634734,0.6559 0.423157,0.37026 0.719366,0.60299 l 1.470469,1.18484 q 0.497209,0.41258 0.888628,0.804 0.39142,0.39142 0.666472,0.7511 0.28563,0.35968 0.444314,0.68763 0.158684,0.32795 0.232736,0.67705 0.08463,0.33853 0.08463,0.71937 0,0.88863 -0.412577,1.68204 -0.412578,0.78284 -1.184838,1.29063 -0.772261,0.50779 -1.692626,0.69821 -0.920365,0.201 -1.94652,0.201 -0.67705,0 -1.576257,-0.11637 -0.899208,-0.11637 -2.369676,-0.44431 z" />
    </g>
    <path
       id="path4679"
       d="m -106.89359,280.75201 v -20.14466 h 31.278709"
       style="fill:none;stroke:#000000;stroke-width:1.32291663;stroke-linecap:butt;stroke-linejoin:miter;stroke-miterlimit:4;stroke-dasharray:none;stroke-opacity:1" />
    <path
       id="path4681"
       d="M -91.316965,280.85302 V 260.60735"
       style="fill:none;stroke:#000000;stroke-width:1.32291663;stroke-linecap:butt;stroke-linejoin:miter;stroke-miterlimit:4;stroke-dasharray:none;stroke-opacity:1" />
    <g
       id="text4677-2"
       style="font-style:normal;font-weight:normal;font-size:11.73631096px;line-height:1.25;font-family:sans-serif;letter-spacing:0px;word-spacing:0px;fill:#000000;fill-opacity:1;stroke:none;stroke-width:0.29340777"
       transform="matrix(0.65154032,-0.49210032,0.73814955,0.97730924,0,0)"
       aria-label="BRUNSFIELD">
      <path
         id="path4819"
         style="font-style:normal;font-variant:normal;font-weight:bold;font-stretch:normal;font-family:'Eras Demi ITC';-inkscape-font-specification:'Eras Demi ITC Bold';fill:#cc0000;fill-opacity:1;stroke-width:0.29340777"
         d="m -405.81849,88.310173 q 0.10888,-1.214892 0.149,-1.988525 0.0401,-0.773634 0.10315,-2.641816 0.063,-1.868183 0.063,-2.567318 0,-0.212033 -0.006,-0.624638 0.72206,0.01146 1.1977,0.01146 0.48138,0 1.18624,-0.01719 0.70487,-0.01719 1.16332,-0.01719 0.64183,0 0.96274,0.05731 0.32665,0.05157 0.57879,0.160457 0.25215,0.108882 0.42407,0.269339 0.17192,0.154727 0.29226,0.372491 0.12608,0.212033 0.18338,0.46418 0.063,0.246416 0.063,0.504294 0,0.320915 -0.0802,0.613177 -0.0745,0.286531 -0.22349,0.521486 -0.14327,0.229225 -0.33811,0.395413 -0.19484,0.160457 -0.37249,0.252147 -0.17765,0.09169 -0.47564,0.194842 0.26934,0.05731 0.42979,0.114612 0.16046,0.05158 0.34384,0.166188 0.18338,0.108882 0.34384,0.286531 0.16619,0.171919 0.26361,0.36676 0.0974,0.194841 0.14899,0.435527 0.0573,0.234955 0.0573,0.492833 0,0.55014 -0.24069,1.008589 -0.23495,0.45845 -0.65329,0.727789 -0.41833,0.263609 -0.93982,0.355299 -0.51576,0.08596 -2.20056,0.08596 l -1.38681,-0.0057 z m 1.87391,-4.578766 h 0.92263 q 0.59026,0 0.79083,-0.02865 0.2063,-0.02865 0.42979,-0.108882 0.2235,-0.08596 0.37823,-0.257878 0.15472,-0.177649 0.22349,-0.383951 0.0745,-0.212033 0.0745,-0.429797 0,-0.212033 -0.0802,-0.401143 -0.0745,-0.189111 -0.23496,-0.309454 -0.16045,-0.126073 -0.38968,-0.177649 -0.22349,-0.05731 -0.65902,-0.05731 h -1.37535 z m -0.13753,3.455564 h 1.30085 q 0.39541,0 0.61318,-0.02865 0.22349,-0.03438 0.42406,-0.114612 0.20057,-0.08023 0.31519,-0.171919 0.11461,-0.09169 0.20057,-0.234955 0.0917,-0.143266 0.14326,-0.320915 0.0516,-0.18338 0.0516,-0.378221 0,-0.263608 -0.0917,-0.46418 -0.0917,-0.200572 -0.27507,-0.343837 -0.17765,-0.148997 -0.41834,-0.212033 -0.24068,-0.06877 -0.73352,-0.06877 h -1.44411 z" />
      <path
         id="path4821"
         style="font-style:normal;font-variant:normal;font-weight:bold;font-stretch:normal;font-family:'Eras Demi ITC';-inkscape-font-specification:'Eras Demi ITC Bold';fill:#cc0000;fill-opacity:1;stroke-width:0.29340777"
         d="m -398.16238,88.310173 q 0.17192,-1.707725 0.25788,-3.925475 0.086,-2.21775 0.086,-3.896822 0.68767,0.01146 1.15185,0.01146 0.49856,0 0.97421,-0.01719 0.48137,-0.01719 1.01432,-0.01719 0.66475,0 1.18623,0.0745 0.52722,0.0745 0.9341,0.343837 0.40687,0.269339 0.60171,0.653291 0.20057,0.383951 0.20057,0.893976 0,0.320915 -0.0745,0.613177 -0.0745,0.286531 -0.22349,0.544409 -0.14327,0.252147 -0.34384,0.446988 -0.20057,0.189111 -0.40114,0.303723 -0.19484,0.108882 -0.44699,0.18911 -0.25215,0.08023 -0.67621,0.194842 l 0.38968,0.756441 q 0.18911,0.36103 0.71633,1.295121 l 0.57879,1.01432 q 0.0458,0.08023 0.27507,0.521486 -0.69914,-0.01146 -0.92263,-0.01146 -0.27507,0 -0.96847,0.01146 l -0.6361,-1.524345 q -0.16619,-0.349568 -0.40115,-0.825209 l -0.6934,-1.392541 q -0.10315,-0.194841 -0.28653,-0.584524 0.38395,0.06877 0.69913,0.06877 0.49284,0 0.89971,-0.160457 0.40687,-0.160458 0.62464,-0.492834 0.21776,-0.338106 0.21776,-0.733519 0,-0.240686 -0.0974,-0.446989 -0.0917,-0.206302 -0.31518,-0.349568 -0.2235,-0.143265 -0.53295,-0.183379 -0.30945,-0.04012 -0.61891,-0.04012 -0.17192,0 -0.46991,0.0057 -0.29799,0.0057 -0.73352,0.0057 l -0.10315,2.355285 -0.10888,4.297965 -0.88825,-0.01146 q -0.21203,0 -0.86532,0.01146 z" />
      <path
         id="path4823"
         style="font-style:normal;font-variant:normal;font-weight:bold;font-stretch:normal;font-family:'Eras Demi ITC';-inkscape-font-specification:'Eras Demi ITC Bold';fill:#cc0000;fill-opacity:1;stroke-width:0.29340777"
         d="m -390.43177,80.487876 q 0.66475,0.01146 0.8997,0.01146 0.29226,0 0.87106,-0.01146 l -0.26934,4.624611 q -0.006,0.08023 -0.006,0.171918 0,0.773634 0.21776,1.163316 0.2235,0.389683 0.64756,0.567332 0.4298,0.177649 0.97994,0.177649 0.34957,0 0.66475,-0.08023 0.25788,-0.06877 0.46991,-0.18911 0.17192,-0.103151 0.30372,-0.240686 0.15473,-0.166188 0.25788,-0.383952 0.10888,-0.212033 0.16046,-0.481372 0.0745,-0.406874 0.13753,-1.415463 l 0.12035,-1.994256 q 0.0401,-0.871054 0.063,-1.919758 0.64756,0.01146 0.96275,0.01146 l 0.83667,-0.01146 -0.17765,2.762159 -0.11461,2.194828 q -0.0516,0.767903 -0.16046,1.146124 -0.0917,0.315184 -0.25788,0.584523 -0.16046,0.240686 -0.38395,0.429797 -0.28653,0.246416 -0.67048,0.424066 -0.4298,0.200571 -0.91117,0.292261 -0.66475,0.126074 -1.36962,0.126074 -0.72206,0 -1.35243,-0.131804 -0.53868,-0.114613 -0.99139,-0.355299 -0.44699,-0.240686 -0.7106,-0.538678 -0.21203,-0.240686 -0.33811,-0.601715 -0.14326,-0.401144 -0.14326,-0.893977 0,-0.171919 0.0115,-0.441258 0.0115,-0.27507 0.0401,-0.704866 l 0.0516,-0.808018 q 0.0286,-0.378221 0.063,-1.11174 l 0.0573,-1.243545 q 0.0229,-0.510025 0.0401,-1.128932 z" />
      <path
         id="path4825"
         style="font-style:normal;font-variant:normal;font-weight:bold;font-stretch:normal;font-family:'Eras Demi ITC';-inkscape-font-specification:'Eras Demi ITC Bold';fill:#cc0000;fill-opacity:1;stroke-width:0.29340777"
         d="m -381.9218,88.310173 q 0.10888,-1.025781 0.16618,-2.303709 l 0.13181,-2.808005 q 0.0688,-1.524345 0.0688,-2.710583 0.66475,0.01146 1.12893,0.01146 0.34384,0 1.00286,-0.01146 0.64756,1.128932 1.78795,2.945539 1.14039,1.816607 1.83953,3.008576 l 0.21203,-5.318016 q 0.006,-0.189111 0.006,-0.636099 0.53868,0.01146 0.81375,0.01146 0.10888,0 0.80229,-0.01146 l -0.14327,2.103138 -0.17765,3.598829 -0.0688,2.12033 q -0.59599,-0.01146 -1.01432,-0.01146 -0.33238,0 -1.07736,0.01146 -0.28653,-0.510025 -0.43553,-0.756442 -0.23495,-0.378221 -1.00286,-1.558729 -0.50429,-0.779364 -1.26073,-1.994256 -0.55587,-0.893976 -0.95129,-1.558728 -0.0458,0.92836 -0.14326,3.444103 -0.0401,1.025781 -0.063,2.424052 -0.53868,-0.01146 -0.77936,-0.01146 -0.18911,0 -0.8424,0.01146 z" />
      <path
         id="path4827"
         style="font-style:normal;font-variant:normal;font-weight:bold;font-stretch:normal;font-family:'Eras Demi ITC';-inkscape-font-specification:'Eras Demi ITC Bold';fill:#cc0000;fill-opacity:1;stroke-width:0.29340777"
         d="m -372.88461,88.143985 q -0.0458,-0.871054 -0.12035,-1.421194 1.1232,0.510025 2.0401,0.510025 0.36676,0 0.68195,-0.108881 0.32091,-0.114613 0.46991,-0.315185 0.15472,-0.206302 0.15472,-0.458449 0,-0.194841 -0.0688,-0.349568 -0.10315,-0.212033 -0.34384,-0.441258 -0.33238,-0.315184 -1.18624,-1.037242 -0.40687,-0.349568 -0.5616,-0.498564 -0.34384,-0.326646 -0.52722,-0.584523 -0.18338,-0.263609 -0.2636,-0.521487 -0.0802,-0.257878 -0.0802,-0.55014 0,-0.538678 0.29799,-1.008589 0.30372,-0.475641 0.89971,-0.73925 0.60171,-0.269339 1.51288,-0.269339 0.81948,0 1.84526,0.200572 0.0287,0.595984 0.11461,1.363887 -0.89397,-0.343837 -1.65042,-0.343837 -0.5616,0 -0.92263,0.257878 -0.35529,0.252147 -0.35529,0.590254 0,0.09169 0.0229,0.194841 0.0229,0.09742 0.0688,0.194841 0.0458,0.09169 0.16045,0.246417 0.12035,0.148996 0.34384,0.355298 0.22922,0.200572 0.38968,0.326646 l 0.79656,0.641829 q 0.26934,0.223495 0.48137,0.435527 0.21203,0.212033 0.36103,0.406875 0.15473,0.194841 0.24069,0.37249 0.086,0.177649 0.12607,0.36676 0.0458,0.183379 0.0458,0.389682 0,0.481372 -0.22349,0.911168 -0.22349,0.424066 -0.64183,0.699136 -0.41834,0.27507 -0.9169,0.378221 -0.49856,0.108882 -1.05443,0.108882 -0.36676,0 -0.85387,-0.06304 -0.4871,-0.06304 -1.28365,-0.240686 z" />
      <path
         id="path4829"
         style="font-style:normal;font-variant:normal;font-weight:bold;font-stretch:normal;font-family:'Eras Demi ITC';-inkscape-font-specification:'Eras Demi ITC Bold';fill:#cc0000;fill-opacity:1;stroke-width:0.29340777"
         d="m -366.64397,88.310173 q 0.10315,-1.123202 0.13754,-1.805145 0.063,-1.140394 0.1318,-3.266454 0.0516,-1.57019 0.0516,-2.21775 v -0.532948 q 1.64469,0.01146 2.87677,0.01146 l 1.60457,-0.0057 0.95702,-0.0057 q -0.063,0.853862 -0.0688,1.237814 l -0.81948,-0.02865 -0.33238,-0.0057 h -0.44698 -0.87106 l -1.18624,0.0057 -0.0688,2.057293 0.9742,0.01719 q 1.11174,0 1.42693,-0.0057 l 0.77936,-0.01146 q -0.0401,0.664752 -0.0516,1.214891 -0.99712,-0.02292 -1.58738,-0.02292 -0.74498,0 -1.6103,0.02292 l -0.063,2.532935 -0.006,0.515755 v 0.292262 l -0.87678,-0.01146 q -0.0688,0 -0.95129,0.01146 z" />
      <path
         id="path4831"
         style="font-style:normal;font-variant:normal;font-weight:bold;font-stretch:normal;font-family:'Eras Demi ITC';-inkscape-font-specification:'Eras Demi ITC Bold';fill:#cc0000;fill-opacity:1;stroke-width:0.29340777"
         d="m -359.92768,88.310173 q 0.13753,-1.971333 0.22349,-4.040087 0.086,-2.074485 0.086,-3.169034 l -0.006,-0.613176 0.95701,0.01146 q 0.0802,0 0.87679,-0.01146 -0.23496,3.014306 -0.29799,7.822297 l -0.8424,-0.01146 q -0.21204,0 -0.99713,0.01146 z" />
      <path
         id="path4833"
         style="font-style:normal;font-variant:normal;font-weight:bold;font-stretch:normal;font-family:'Eras Demi ITC';-inkscape-font-specification:'Eras Demi ITC Bold';fill:#cc0000;fill-opacity:1;stroke-width:0.29340777"
         d="m -356.48358,88.310173 0.16619,-2.194828 0.12034,-2.538665 0.0745,-2.30944 v -0.779364 q 1.41546,0.01146 2.95127,0.01146 l 1.10028,-0.0057 1.65615,-0.0057 -0.0688,1.237814 -0.54441,-0.02865 q -0.22349,-0.01146 -0.6189,-0.01719 -0.39542,-0.0057 -0.80802,-0.0057 -0.89398,0 -1.15759,0.0057 -0.25787,0 -0.78509,0.01719 l -0.0917,2.03437 q 0.78509,0.01719 1.58165,0.01719 0.55014,0 1.85672,-0.03438 -0.0458,0.521487 -0.0802,1.249276 -1.53007,-0.01719 -1.75357,-0.01719 -0.67621,0 -1.6848,0.03438 l -0.0917,2.143253 0.63037,0.0057 q 0.27507,0 1.26073,-0.01146 l 1.24355,-0.02292 0.83094,-0.04011 q -0.0573,0.664752 -0.0802,1.255006 -1.48996,-0.01146 -2.68766,-0.01146 l -1.88537,0.0057 z" />
      <path
         id="path4835"
         style="font-style:normal;font-variant:normal;font-weight:bold;font-stretch:normal;font-family:'Eras Demi ITC';-inkscape-font-specification:'Eras Demi ITC Bold';fill:#cc0000;fill-opacity:1;stroke-width:0.29340777"
         d="m -349.34323,88.310173 q 0.17192,-1.724917 0.27507,-3.839516 0.10316,-2.120329 0.12035,-3.982781 0.58452,0.01146 0.9742,0.01146 0.26361,0 0.8424,-0.01146 -0.0745,1.031512 -0.13753,2.349554 l -0.11461,2.297979 q -0.0516,0.985667 -0.0745,1.959872 l 0.98567,0.01146 q 1.38681,0 1.82233,-0.0057 0.43553,-0.01146 0.8596,-0.03438 -0.0516,0.561601 -0.0917,1.243545 -1.50716,-0.01146 -2.57878,-0.01146 l -1.80515,0.0057 z" />
      <path
         id="path4837"
         style="font-style:normal;font-variant:normal;font-weight:bold;font-stretch:normal;font-family:'Eras Demi ITC';-inkscape-font-specification:'Eras Demi ITC Bold';fill:#cc0000;fill-opacity:1;stroke-width:0.29340777"
         d="m -342.9937,88.310173 0.15473,-1.994256 0.11461,-2.49282 0.0745,-2.481359 q 0.006,-0.160457 0.006,-0.853862 0.6361,0.01146 1.1977,0.01146 0.41834,0 1.10028,-0.01719 0.68767,-0.01719 1.18624,-0.01719 0.67621,0 1.24927,0.08023 0.5788,0.08023 1.00859,0.303723 0.4298,0.217764 0.74498,0.55014 0.31519,0.332376 0.51576,0.73925 0.20057,0.401143 0.30372,0.899707 0.10888,0.492833 0.10888,1.008589 0,0.985667 -0.34383,1.879644 -0.33811,0.888246 -1.01432,1.472769 -0.67622,0.578793 -1.50143,0.744981 -0.81947,0.166188 -1.86245,0.166188 l -1.94841,-0.01146 q -0.18338,0 -1.09455,0.01146 z m 1.7593,-1.220622 q 0.46992,0.02292 0.92836,0.02292 0.52149,0 0.96275,-0.05157 0.44699,-0.05158 0.7679,-0.160458 0.32092,-0.114612 0.64183,-0.395412 0.32665,-0.280801 0.53295,-0.647561 0.2063,-0.37249 0.31518,-0.825209 0.10889,-0.452719 0.10889,-0.92263 0,-0.859593 -0.29227,-1.409733 -0.29226,-0.55587 -0.77363,-0.796556 -0.47564,-0.246416 -1.47277,-0.246416 -0.64756,0 -1.48423,0.02292 z" />
    </g>
    <g
       id="text4677-26"
       style="font-style:normal;font-weight:normal;font-size:14.01782513px;line-height:1.25;font-family:sans-serif;letter-spacing:0px;word-spacing:0px;fill:#000000;fill-opacity:1;stroke:none;stroke-width:0.3504456"
       transform="matrix(0.73095238,-0.36382585,0.54574372,1.0964385,0,0)"
       aria-label="MAKERSPACE">
      <path
         id="path4798"
         style="font-style:normal;font-variant:normal;font-weight:bold;font-stretch:normal;font-family:'Eras Demi ITC';-inkscape-font-specification:'Eras Demi ITC Bold';fill:#cc0000;fill-opacity:1;stroke-width:0.3504456"
         d="m -98.031562,98.042145 0.177961,-1.546889 0.451746,-5.434645 0.157427,-2.361401 q 0.978783,0.01369 1.43053,0.01369 0.362766,0 1.321015,-0.01369 0.109515,0.554416 0.164272,0.787133 0.05476,0.232718 0.212184,0.746066 0.157426,0.513348 0.403834,1.245725 0.362765,1.108832 0.65024,2.190285 l 0.520193,1.957567 0.917182,-2.511983 1.334705,-3.264894 q 0.06845,-0.164271 0.136893,-0.376455 0.07529,-0.219028 0.246407,-0.773444 0.814512,0.01369 1.451064,0.01369 0.424368,0 1.355239,-0.01369 -0.09583,1.971256 -0.143738,4.360036 -0.04791,2.381935 -0.04791,3.559213 0,0.568106 0.01369,1.423686 -0.677619,-0.01369 -0.924026,-0.01369 -0.355922,0 -0.944561,0.01369 0.04107,-0.698154 0.05476,-1.1499 l 0.116359,-4.072561 q 0.02053,-0.862425 0.02053,-1.697471 l -0.0068,-0.554416 -2.525672,6.659835 -0.29432,0.814513 q -0.66393,-0.01369 -0.910337,-0.01369 -0.308009,0 -0.965094,0.01369 l -1.177279,-4.216299 q -0.0616,-0.225873 -0.287475,-0.944561 l -0.424367,-1.396306 q -0.0616,-0.198495 -0.09582,-0.321699 -0.02738,-0.130048 -0.130048,-0.568105 l -0.08898,0.876114 q -0.03422,0.417523 -0.102669,1.396307 l -0.266941,4.243678 q -0.01369,0.314853 -0.02053,0.930871 l -0.882959,-0.01369 q -0.225873,0 -0.896648,0.01369 z" />
      <path
         id="path4800"
         style="font-style:normal;font-variant:normal;font-weight:bold;font-stretch:normal;font-family:'Eras Demi ITC';-inkscape-font-specification:'Eras Demi ITC Bold';fill:#cc0000;fill-opacity:1;stroke-width:0.3504456"
         d="m -86.669457,98.042145 q 0.711842,-1.259414 1.670092,-3.114312 l 1.800141,-3.456544 q 0.841891,-1.601646 1.396306,-2.772079 0.889804,0.01369 1.259414,0.01369 0.650241,0 1.273104,-0.01369 l 0.978783,2.799458 2.128684,5.790566 0.294319,0.752911 -1.026696,-0.01369 q -0.355921,0 -1.197812,0.01369 -0.164271,-0.609173 -0.520193,-1.642714 -0.349076,-1.033541 -0.595484,-1.676937 h -3.600281 q -0.800823,1.629024 -1.560578,3.319651 l -1.115676,-0.01369 q -0.314854,0 -1.184123,0.01369 z m 4.46955,-4.743337 h 2.621498 l -1.074609,-3.162224 -0.554416,1.1499 z" />
      <path
         id="path4802"
         style="font-style:normal;font-variant:normal;font-weight:bold;font-stretch:normal;font-family:'Eras Demi ITC';-inkscape-font-specification:'Eras Demi ITC Bold';fill:#cc0000;fill-opacity:1;stroke-width:0.3504456"
         d="m -74.862453,98.042145 q 0.116359,-1.34155 0.171116,-2.313489 0.08214,-1.389462 0.184806,-3.928824 0.06845,-1.738539 0.06845,-2.464071 V 88.69921 q 0.848736,0.01369 1.115677,0.01369 0.17796,0 1.054074,-0.01369 l -0.212183,3.696106 -0.184806,4.428483 -0.02053,1.218346 -1.060919,-0.01369 q -0.19165,0 -1.115677,0.01369 z m 2.484605,-4.941831 1.553734,-1.909655 1.41684,-1.800141 q 0.150583,-0.198494 0.506504,-0.691308 l 1.232035,0.01369 q 0.07529,0 1.177279,-0.01369 l -3.148535,3.70295 -0.533882,0.663931 0.431212,0.616017 q 0.09583,0.130049 1.355239,1.779607 l 1.991791,2.58043 -1.218347,-0.01369 q -0.321698,0 -1.334705,0.01369 l -0.438057,-0.684464 q -0.123203,-0.198495 -0.438057,-0.650241 l -1.861742,-2.655721 z" />
      <path
         id="path4804"
         style="font-style:normal;font-variant:normal;font-weight:bold;font-stretch:normal;font-family:'Eras Demi ITC';-inkscape-font-specification:'Eras Demi ITC Bold';fill:#cc0000;fill-opacity:1;stroke-width:0.3504456"
         d="m -65.451069,98.042145 0.198495,-2.621498 0.143737,-3.032176 0.08898,-2.75839 V 88.69921 q 1.690627,0.01369 3.524991,0.01369 l 1.314171,-0.0068 1.978101,-0.0068 -0.08214,1.478442 -0.650241,-0.03422 q -0.266941,-0.01369 -0.739221,-0.02053 -0.47228,-0.0068 -0.965094,-0.0068 -1.067764,0 -1.382618,0.0068 -0.308009,0 -0.937716,0.02053 l -0.109514,2.429847 q 0.937716,0.02053 1.889121,0.02053 0.657086,0 2.217664,-0.04107 -0.05476,0.622862 -0.09582,1.492131 -1.827519,-0.02053 -2.09446,-0.02053 -0.807668,0 -2.012325,0.04107 l -0.109514,2.559896 0.75291,0.0068 q 0.328543,0 1.505821,-0.01369 l 1.485288,-0.02738 0.992473,-0.04791 q -0.06845,0.793979 -0.09582,1.498977 -1.779607,-0.01369 -3.210137,-0.01369 l -2.251887,0.0068 z" />
      <path
         id="path4806"
         style="font-style:normal;font-variant:normal;font-weight:bold;font-stretch:normal;font-family:'Eras Demi ITC';-inkscape-font-specification:'Eras Demi ITC Bold';fill:#cc0000;fill-opacity:1;stroke-width:0.3504456"
         d="m -56.888425,98.042145 q 0.205339,-2.039703 0.308009,-4.688579 0.102669,-2.648877 0.102669,-4.654356 0.821357,0.01369 1.375773,0.01369 0.595484,0 1.163589,-0.02053 0.57495,-0.02053 1.211502,-0.02053 0.793978,0 1.41684,0.08898 0.629707,0.08898 1.115677,0.410679 0.485969,0.321698 0.718687,0.780289 0.239563,0.458591 0.239563,1.067764 0,0.3833 -0.08898,0.732377 -0.08898,0.342232 -0.266941,0.65024 -0.171116,0.301165 -0.410678,0.533882 -0.239563,0.225874 -0.479125,0.362766 -0.232718,0.130049 -0.533882,0.225874 -0.301164,0.09583 -0.807668,0.232717 l 0.465436,0.903493 q 0.225873,0.431212 0.85558,1.546889 l 0.691309,1.211501 q 0.05476,0.09583 0.328543,0.622863 -0.835047,-0.01369 -1.101988,-0.01369 -0.328542,0 -1.156744,0.01369 L -52.50101,96.22147 q -0.198495,-0.417523 -0.479125,-0.985628 l -0.828202,-1.663248 q -0.123203,-0.232718 -0.342232,-0.698153 0.458591,0.08213 0.835047,0.08213 0.588639,0 1.074608,-0.19165 0.48597,-0.19165 0.746066,-0.588639 0.260096,-0.403834 0.260096,-0.876114 0,-0.287475 -0.116358,-0.533882 -0.109515,-0.246407 -0.376456,-0.417523 -0.266941,-0.171116 -0.636551,-0.219028 -0.369611,-0.04791 -0.739222,-0.04791 -0.205339,0 -0.56126,0.0068 -0.355922,0.0068 -0.876114,0.0068 l -0.123204,2.813148 -0.130048,5.133481 -1.060919,-0.01369 q -0.253252,0 -1.033541,0.01369 z" />
      <path
         id="path4808"
         style="font-style:normal;font-variant:normal;font-weight:bold;font-stretch:normal;font-family:'Eras Demi ITC';-inkscape-font-specification:'Eras Demi ITC Bold';fill:#cc0000;fill-opacity:1;stroke-width:0.3504456"
         d="m -48.271021,97.84365 q -0.05476,-1.040385 -0.143738,-1.697471 1.34155,0.609173 2.436692,0.609173 0.438057,0 0.814513,-0.130048 0.3833,-0.136893 0.56126,-0.376455 0.184806,-0.246407 0.184806,-0.547572 0,-0.232717 -0.08214,-0.417523 -0.123204,-0.253251 -0.410679,-0.527037 -0.396989,-0.376455 -1.41684,-1.23888 -0.48597,-0.417523 -0.670775,-0.595484 -0.410679,-0.390144 -0.629707,-0.698153 -0.219029,-0.314854 -0.314854,-0.622863 -0.09582,-0.308008 -0.09582,-0.657085 0,-0.643396 0.355922,-1.204657 0.362766,-0.568105 1.074608,-0.882959 0.718688,-0.321698 1.806986,-0.321698 0.978783,0 2.203974,0.239563 0.03422,0.711842 0.136893,1.629024 -1.067764,-0.410678 -1.971257,-0.410678 -0.670775,0 -1.101987,0.308009 -0.424368,0.301164 -0.424368,0.704998 0,0.109514 0.02738,0.232717 0.02738,0.116359 0.08214,0.232718 0.05476,0.109515 0.19165,0.29432 0.143737,0.17796 0.410678,0.424368 0.273786,0.239562 0.465436,0.390144 l 0.951405,0.7666 q 0.321698,0.266941 0.57495,0.520193 0.253251,0.253251 0.431212,0.485969 0.184805,0.232718 0.287475,0.444902 0.10267,0.212184 0.150582,0.438057 0.05476,0.219028 0.05476,0.465435 0,0.57495 -0.266941,1.088298 -0.266941,0.506504 -0.7666,0.835047 -0.499658,0.328542 -1.095142,0.451746 -0.595484,0.130048 -1.259414,0.130048 -0.438057,0 -1.019852,-0.07529 -0.581794,-0.07529 -1.533199,-0.287475 z" />
      <path
         id="path4810"
         style="font-style:normal;font-variant:normal;font-weight:bold;font-stretch:normal;font-family:'Eras Demi ITC';-inkscape-font-specification:'Eras Demi ITC Bold';fill:#cc0000;fill-opacity:1;stroke-width:0.3504456"
         d="m -40.817208,98.042145 0.123203,-1.62218 0.171116,-3.593437 0.08214,-2.607808 q 0.0068,-0.355921 0.0068,-0.718687 0,-0.266941 -0.0068,-0.800823 0.876114,0.01369 1.423686,0.01369 0.438057,0 1.218346,-0.02053 0.780289,-0.02053 1.23888,-0.02053 0.94456,0 1.389462,0.136893 0.47228,0.150582 0.828201,0.47228 0.355922,0.321698 0.540727,0.773445 0.205339,0.506503 0.205339,1.088297 0,0.882959 -0.444901,1.608491 -0.438057,0.718687 -1.218346,1.074609 -0.78029,0.355921 -1.731695,0.355921 -0.465435,0 -0.992473,-0.09582 -0.150582,-0.711843 -0.342232,-1.334705 0.424368,0.08898 0.841891,0.08898 0.568105,0 0.985628,-0.171116 0.417524,-0.171116 0.663931,-0.554415 0.246407,-0.390145 0.246407,-0.876115 0,-0.287474 -0.10267,-0.527037 -0.102669,-0.239562 -0.301164,-0.3833 -0.19165,-0.143737 -0.431212,-0.19165 -0.232718,-0.05476 -0.670775,-0.05476 -0.3833,0 -0.773445,0.01369 -0.390144,0.01369 -0.691309,0.01369 -0.08213,1.341549 -0.123203,2.56674 l -0.08214,2.614653 q -0.04107,1.389462 -0.04107,2.039703 0,0.246407 0.0068,0.711843 l -0.992473,-0.01369 q -0.19165,0 -1.026696,0.01369 z" />
      <path
         id="path4812"
         style="font-style:normal;font-variant:normal;font-weight:bold;font-stretch:normal;font-family:'Eras Demi ITC';-inkscape-font-specification:'Eras Demi ITC Bold';fill:#cc0000;fill-opacity:1;stroke-width:0.3504456"
         d="m -33.801452,98.042145 q 0.711843,-1.259414 1.670093,-3.114312 l 1.80014,-3.456544 q 0.841891,-1.601646 1.396307,-2.772079 0.889804,0.01369 1.259414,0.01369 0.650241,0 1.273103,-0.01369 l 0.978784,2.799458 2.128684,5.790566 0.294319,0.752911 -1.026696,-0.01369 q -0.355921,0 -1.197812,0.01369 -0.164272,-0.609173 -0.520193,-1.642714 -0.349077,-1.033541 -0.595484,-1.676937 h -3.600281 q -0.800823,1.629024 -1.560578,3.319651 l -1.115677,-0.01369 q -0.314853,0 -1.184123,0.01369 z m 4.469551,-4.743337 h 2.621498 l -1.074609,-3.162224 -0.554416,1.1499 z" />
      <path
         id="path4814"
         style="font-style:normal;font-variant:normal;font-weight:bold;font-stretch:normal;font-family:'Eras Demi ITC';-inkscape-font-specification:'Eras Demi ITC Bold';fill:#cc0000;fill-opacity:1;stroke-width:0.3504456"
         d="m -14.348977,96.330984 q -0.150582,0.800823 -0.260096,1.629025 -0.780289,0.136893 -1.43053,0.19165 -0.650241,0.05476 -1.115677,0.05476 -1.026696,0 -1.964412,-0.287475 -0.930871,-0.287475 -1.683782,-0.903492 -0.746065,-0.622863 -1.081453,-1.505821 -0.335387,-0.882959 -0.335387,-1.930189 0,-1.136211 0.403834,-2.101305 0.403833,-0.965095 1.156744,-1.629025 0.759755,-0.66393 1.793296,-0.985628 1.033541,-0.328543 2.156062,-0.328543 1.108832,0 2.423003,0.253252 0.02053,0.609173 0.04107,0.862425 l 0.04791,0.732376 q -0.773444,-0.205339 -1.286792,-0.28063 -0.513348,-0.07529 -0.978784,-0.07529 -0.732377,0 -1.409996,0.225873 -0.670775,0.219029 -1.190968,0.704998 -0.513348,0.48597 -0.793978,1.177278 -0.273786,0.684465 -0.273786,1.43053 0,0.889804 0.342232,1.594802 0.342232,0.704998 1.095143,1.143055 0.759755,0.438057 1.875432,0.438057 1.03354,0 2.470915,-0.410679 z" />
      <path
         id="path4816"
         style="font-style:normal;font-variant:normal;font-weight:bold;font-stretch:normal;font-family:'Eras Demi ITC';-inkscape-font-specification:'Eras Demi ITC Bold';fill:#cc0000;fill-opacity:1;stroke-width:0.3504456"
         d="m -12.911602,98.042145 0.198494,-2.621498 0.143738,-3.032176 0.08898,-2.75839 V 88.69921 q 1.690627,0.01369 3.5249904,0.01369 l 1.3141711,-0.0068 1.9781013,-0.0068 -0.082136,1.478442 -0.6502409,-0.03422 q -0.266941,-0.01369 -0.7392213,-0.02053 -0.4722802,-0.0068 -0.9650944,-0.0068 -1.067764,0 -1.3826175,0.0068 -0.3080088,0 -0.937716,0.02053 l -0.109514,2.429847 q 0.9377158,0.02053 1.8891209,0.02053 0.6570855,0 2.2176637,-0.04107 -0.054757,0.622862 -0.095825,1.492131 -1.8275192,-0.02053 -2.0944602,-0.02053 -0.8076676,0 -2.0123244,0.04107 l -0.109514,2.559896 0.7529102,0.0068 q 0.3285428,0 1.5058211,-0.01369 l 1.4852871,-0.02738 0.992473,-0.04791 q -0.068446,0.793979 -0.095825,1.498977 -1.7796067,-0.01369 -3.2101367,-0.01369 l -2.2518867,0.0068 z" />
    </g>
    <g
       id="text4677-7"
       style="font-style:normal;font-weight:normal;font-size:17.31959534px;line-height:1.25;font-family:sans-serif;letter-spacing:0px;word-spacing:0px;fill:#000000;fill-opacity:1;stroke:none;stroke-width:0.43298987"
       transform="matrix(0.81092851,-0.0951608,0.14274249,1.2164038,0,0)"
       aria-label="MTC">
      <path
         id="path4840"
         style="font-style:normal;font-variant:normal;font-weight:bold;font-stretch:normal;font-family:'Eras Demi ITC';-inkscape-font-specification:'Eras Demi ITC Bold';fill:#cc0000;fill-opacity:1;stroke-width:0.43298987"
         d="m -259.03624,119.94045 0.21988,-1.91124 0.55815,-6.71473 0.19451,-2.91761 q 1.20933,0.0169 1.76748,0.0169 0.44821,0 1.63217,-0.0169 0.1353,0.68501 0.20296,0.97254 0.0677,0.28753 0.26216,0.9218 0.19451,0.63426 0.49895,1.53914 0.44822,1.37001 0.8034,2.70619 l 0.64272,2.41865 1.13322,-3.10366 1.64908,-4.03391 q 0.0846,-0.20296 0.16914,-0.46512 0.093,-0.27062 0.30444,-0.95563 1.00637,0.0169 1.79285,0.0169 0.52433,0 1.67446,-0.0169 -0.1184,2.43557 -0.1776,5.38701 -0.0592,2.94298 -0.0592,4.39755 0,0.70192 0.0169,1.75902 -0.83723,-0.0169 -1.14167,-0.0169 -0.43976,0 -1.16705,0.0169 0.0507,-0.86259 0.0677,-1.42075 l 0.14376,-5.03181 q 0.0254,-1.06556 0.0254,-2.0973 l -0.008,-0.685 -3.12057,8.2285 -0.36365,1.00636 q -0.82031,-0.0169 -1.12476,-0.0169 -0.38056,0 -1.19241,0.0169 l -1.45458,-5.20941 q -0.0761,-0.27907 -0.35518,-1.16704 l -0.52433,-1.72519 q -0.0761,-0.24525 -0.11839,-0.39748 -0.0338,-0.16068 -0.16068,-0.70191 l -0.10994,1.08247 q -0.0423,0.51587 -0.12685,1.7252 l -0.32982,5.24323 q -0.0169,0.38902 -0.0254,1.15013 l -1.09093,-0.0169 q -0.27908,0 -1.10785,0.0169 z" />
      <path
         id="path4842"
         style="font-style:normal;font-variant:normal;font-weight:bold;font-stretch:normal;font-family:'Eras Demi ITC';-inkscape-font-specification:'Eras Demi ITC Bold';fill:#cc0000;fill-opacity:1;stroke-width:0.43298987"
         d="m -241.00627,119.94045 0.18605,-2.46939 0.18605,-3.67873 0.1184,-3.61952 h -0.59198 l -0.54969,0.008 -0.52433,0.008 -1.95353,0.0592 q 0.0677,-1.21778 0.0761,-1.85205 2.43557,0.0169 5.09948,0.0169 l 3.036,-0.008 1.62371,-0.008 q -0.0846,1.19242 -0.0846,1.83514 -1.53068,-0.0761 -2.93452,-0.0761 h -0.65118 l -0.10148,1.5476 -0.24525,5.95361 -0.0169,0.9979 q -0.008,0.61735 -0.008,1.28544 l -1.28543,-0.0169 q -0.21143,0 -1.37847,0.0169 z" />
      <path
         id="path4844"
         style="font-style:normal;font-variant:normal;font-weight:bold;font-stretch:normal;font-family:'Eras Demi ITC';-inkscape-font-specification:'Eras Demi ITC Bold';fill:#cc0000;fill-opacity:1;stroke-width:0.43298987"
         d="m -224.04186,117.82624 q -0.18605,0.98945 -0.32136,2.01273 -0.96408,0.16914 -1.76748,0.23679 -0.8034,0.0677 -1.37846,0.0677 -1.26853,0 -2.42711,-0.35519 -1.15013,-0.35519 -2.08038,-1.1163 -0.9218,-0.76957 -1.33618,-1.86051 -0.41439,-1.09093 -0.41439,-2.38482 0,-1.40384 0.49895,-2.59625 0.49896,-1.19241 1.42921,-2.01273 0.93871,-0.82031 2.21569,-1.21778 1.27698,-0.40593 2.6639,-0.40593 1.37001,0 2.99372,0.3129 0.0254,0.75266 0.0507,1.06556 l 0.0592,0.90489 q -0.95562,-0.25371 -1.58988,-0.34673 -0.63427,-0.093 -1.20933,-0.093 -0.90488,0 -1.74211,0.27908 -0.82877,0.27061 -1.47149,0.87105 -0.63426,0.60043 -0.98099,1.45458 -0.33827,0.84568 -0.33827,1.76747 0,1.09939 0.42284,1.97045 0.42284,0.87105 1.35309,1.41229 0.93871,0.54123 2.31717,0.54123 1.27698,0 3.05292,-0.50741 z" />
    </g>
    <g
       id="text4677-26-3"
       style="font-style:normal;font-weight:normal;font-size:10.85939121px;line-height:1.25;font-family:sans-serif;letter-spacing:0px;word-spacing:0px;fill:#000000;fill-opacity:1;stroke:none;stroke-width:0.27148476"
       transform="matrix(0.13223668,0.80571343,-1.208581,0.19835682,0,0)"
       aria-label="MAKERLAB">
      <path
         id="path4781"
         style="font-style:normal;font-variant:normal;font-weight:bold;font-stretch:normal;font-family:'Eras Demi ITC';-inkscape-font-specification:'Eras Demi ITC Bold';fill:#cc0000;fill-opacity:1;stroke-width:0.27148476"
         d="m 271.72225,-17.48934 0.13787,-1.198351 0.34996,-4.210135 0.12195,-1.82934 q 0.75825,0.0106 1.10821,0.0106 0.28103,0 1.02337,-0.0106 0.0848,0.429497 0.12726,0.60978 0.0424,0.180283 0.16438,0.577965 0.12195,0.397683 0.31284,0.965044 0.28103,0.858995 0.50373,1.69678 l 0.40299,1.516497 0.71052,-1.945995 1.03398,-2.529262 q 0.053,-0.127259 0.10605,-0.291634 0.0583,-0.169678 0.19089,-0.599175 0.63099,0.0106 1.12411,0.0106 0.32875,0 1.04988,-0.0106 -0.0742,1.527101 -0.11135,3.377652 -0.0371,1.845248 -0.0371,2.757267 0,0.440103 0.0106,1.102907 -0.52494,-0.01061 -0.71583,-0.01061 -0.27572,0 -0.73173,0.01061 0.0318,-0.540848 0.0424,-0.890809 l 0.0901,-3.15495 q 0.0159,-0.668107 0.0159,-1.315005 l -0.005,-0.429497 -1.9566,5.159271 -0.228,0.63099 q -0.51434,-0.01061 -0.70523,-0.01061 -0.23861,0 -0.74764,0.01061 l -0.91202,-3.266301 q -0.0477,-0.174981 -0.2227,-0.731736 l -0.32875,-1.081698 q -0.0477,-0.15377 -0.0742,-0.249214 -0.0212,-0.100746 -0.10074,-0.440102 l -0.0689,0.678712 q -0.0265,0.323448 -0.0795,1.081697 l -0.2068,3.287511 q -0.0106,0.243912 -0.0159,0.721131 l -0.68402,-0.01061 q -0.17498,0 -0.69462,0.01061 z" />
      <path
         id="path4783"
         style="font-style:normal;font-variant:normal;font-weight:bold;font-stretch:normal;font-family:'Eras Demi ITC';-inkscape-font-specification:'Eras Demi ITC Bold';fill:#cc0000;fill-opacity:1;stroke-width:0.27148476"
         d="m 280.5243,-17.48934 q 0.55145,-0.975648 1.29379,-2.412609 l 1.39454,-2.67773 q 0.6522,-1.240771 1.0817,-2.147487 0.68932,0.0106 0.97565,0.0106 0.50373,0 0.98625,-0.0106 l 0.75825,2.168696 1.64906,4.485862 0.228,0.583268 -0.79536,-0.01061 q -0.27573,0 -0.92793,0.01061 -0.12726,-0.471917 -0.40298,-1.272585 -0.27043,-0.800668 -0.46132,-1.299097 h -2.78908 q -0.62038,1.26198 -1.20895,2.571682 l -0.8643,-0.01061 q -0.24391,0 -0.91732,0.01061 z m 3.46249,-3.674589 h 2.03083 l -0.83248,-2.449726 -0.4295,0.89081 z" />
      <path
         id="path4785"
         style="font-style:normal;font-variant:normal;font-weight:bold;font-stretch:normal;font-family:'Eras Demi ITC';-inkscape-font-specification:'Eras Demi ITC Bold';fill:#cc0000;fill-opacity:1;stroke-width:0.27148476"
         d="m 289.671,-17.48934 q 0.0901,-1.039278 0.13256,-1.792224 0.0636,-1.076394 0.14317,-3.043598 0.053,-1.34682 0.053,-1.908878 v -0.493126 q 0.65751,0.0106 0.8643,0.0106 0.13786,0 0.81658,-0.0106 l -0.16438,2.863316 -0.14317,3.430676 -0.0159,0.943834 -0.82188,-0.01061 q -0.14847,0 -0.8643,0.01061 z m 1.92479,-3.828359 1.20365,-1.47938 1.0976,-1.394541 q 0.11666,-0.153771 0.39239,-0.535546 l 0.95443,0.0106 q 0.0583,0 0.91202,-0.0106 l -2.43912,2.868618 -0.41359,0.514336 0.33406,0.47722 q 0.0742,0.100746 1.04988,1.378633 l 1.54301,1.999019 -0.94384,-0.01061 q -0.24921,0 -1.03397,0.01061 l -0.33936,-0.530244 q -0.0954,-0.15377 -0.33935,-0.503731 l -1.44227,-2.057346 z" />
      <path
         id="path4787"
         style="font-style:normal;font-variant:normal;font-weight:bold;font-stretch:normal;font-family:'Eras Demi ITC';-inkscape-font-specification:'Eras Demi ITC Bold';fill:#cc0000;fill-opacity:1;stroke-width:0.27148476"
         d="m 296.96185,-17.48934 0.15377,-2.030833 0.11136,-2.34898 0.0689,-2.136882 v -0.721131 q 1.3097,0.0106 2.73075,0.0106 l 1.01807,-0.0053 1.5324,-0.0053 -0.0636,1.145326 -0.50374,-0.02651 q -0.20679,-0.01061 -0.57266,-0.01591 -0.36587,-0.0053 -0.74764,-0.0053 -0.82718,0 -1.0711,0.0053 -0.2386,0 -0.72643,0.01591 l -0.0848,1.882365 q 0.72644,0.01591 1.46347,0.01591 0.50904,0 1.71799,-0.03181 -0.0424,0.482521 -0.0742,1.155931 -1.41575,-0.01591 -1.62255,-0.01591 -0.62568,0 -1.55891,0.03181 l -0.0848,1.983112 0.58327,0.0053 q 0.25451,0 1.16653,-0.01061 l 1.15063,-0.02121 0.76886,-0.03712 q -0.053,0.615083 -0.0742,1.161234 -1.37863,-0.01061 -2.48684,-0.01061 l -1.7445,0.0053 z" />
      <path
         id="path4789"
         style="font-style:normal;font-variant:normal;font-weight:bold;font-stretch:normal;font-family:'Eras Demi ITC';-inkscape-font-specification:'Eras Demi ITC Bold';fill:#cc0000;fill-opacity:1;stroke-width:0.27148476"
         d="m 303.5952,-17.48934 q 0.15908,-1.580126 0.23861,-3.632169 0.0795,-2.052043 0.0795,-3.605657 0.63629,0.0106 1.06579,0.0106 0.46131,0 0.90141,-0.01591 0.44541,-0.01591 0.93853,-0.01591 0.61509,0 1.09761,0.06893 0.48782,0.06893 0.8643,0.318147 0.37647,0.249214 0.55675,0.604478 0.18559,0.355263 0.18559,0.82718 0,0.296936 -0.0689,0.56736 -0.0689,0.265122 -0.2068,0.503732 -0.13256,0.233307 -0.31815,0.41359 -0.18558,0.174981 -0.37117,0.281029 -0.18028,0.100747 -0.41359,0.174981 -0.2333,0.07423 -0.62568,0.180283 l 0.36056,0.699921 q 0.17498,0.334054 0.66281,1.198351 l 0.53554,0.938531 q 0.0424,0.07424 0.25452,0.482522 -0.6469,-0.01061 -0.85369,-0.01061 -0.25452,0 -0.89611,0.01061 l -0.58858,-1.410448 q -0.15377,-0.323449 -0.37117,-0.763551 l -0.64159,-1.288492 q -0.0954,-0.180283 -0.26512,-0.540849 0.35526,0.06363 0.64689,0.06363 0.45601,0 0.83249,-0.148468 0.37647,-0.148468 0.57796,-0.456009 0.2015,-0.312844 0.2015,-0.678712 0,-0.222703 -0.0901,-0.41359 -0.0848,-0.190888 -0.29163,-0.323449 -0.2068,-0.132561 -0.49313,-0.169678 -0.28633,-0.03712 -0.57266,-0.03712 -0.15907,0 -0.4348,0.0053 -0.27573,0.0053 -0.67871,0.0053 l -0.0955,2.179301 -0.10074,3.976828 -0.82188,-0.01061 q -0.19619,0 -0.80067,0.01061 z" />
      <path
         id="path4791"
         style="font-style:normal;font-variant:normal;font-weight:bold;font-stretch:normal;font-family:'Eras Demi ITC';-inkscape-font-specification:'Eras Demi ITC Bold';fill:#cc0000;fill-opacity:1;stroke-width:0.27148476"
         d="m 310.41944,-17.48934 q 0.15907,-1.596033 0.25452,-3.552633 0.0954,-1.961901 0.11135,-3.685193 0.54085,0.0106 0.90141,0.0106 0.24391,0 0.77946,-0.0106 -0.0689,0.954438 -0.12726,2.173999 l -0.10605,2.126277 q -0.0477,0.912019 -0.0689,1.813434 l 0.91202,0.0106 q 1.28319,0 1.68617,-0.0053 0.40299,-0.01061 0.79537,-0.03182 -0.0477,0.519639 -0.0848,1.150629 -1.39454,-0.01061 -2.3861,-0.01061 l -1.67026,0.0053 z" />
      <path
         id="path4793"
         style="font-style:normal;font-variant:normal;font-weight:bold;font-stretch:normal;font-family:'Eras Demi ITC';-inkscape-font-specification:'Eras Demi ITC Bold';fill:#cc0000;fill-opacity:1;stroke-width:0.27148476"
         d="m 315.32949,-17.48934 q 0.55146,-0.975648 1.2938,-2.412609 l 1.39454,-2.67773 q 0.6522,-1.240771 1.0817,-2.147487 0.68931,0.0106 0.97565,0.0106 0.50373,0 0.98625,-0.0106 l 0.75825,2.168696 1.64905,4.485862 0.22801,0.583268 -0.79537,-0.01061 q -0.27572,0 -0.92792,0.01061 -0.12726,-0.471917 -0.40299,-1.272585 -0.27042,-0.800668 -0.46131,-1.299097 h -2.78908 q -0.62039,1.26198 -1.20896,2.571682 l -0.86429,-0.01061 q -0.24392,0 -0.91733,0.01061 z m 3.4625,-3.674589 h 2.03083 l -0.83248,-2.449726 -0.4295,0.89081 z" />
      <path
         id="path4795"
         style="font-style:normal;font-variant:normal;font-weight:bold;font-stretch:normal;font-family:'Eras Demi ITC';-inkscape-font-specification:'Eras Demi ITC Bold';fill:#cc0000;fill-opacity:1;stroke-width:0.27148476"
         d="m 324.48681,-17.48934 q 0.10074,-1.124116 0.13786,-1.839946 0.0371,-0.715829 0.0954,-2.444423 0.0583,-1.728595 0.0583,-2.375492 0,-0.19619 -0.005,-0.577965 0.6681,0.0106 1.10821,0.0106 0.4454,0 1.0976,-0.01591 0.6522,-0.01591 1.0764,-0.01591 0.59387,0 0.89081,0.05302 0.30223,0.04772 0.53554,0.148468 0.23331,0.100747 0.39238,0.249215 0.15908,0.143166 0.27043,0.344658 0.11665,0.196191 0.16967,0.429498 0.0583,0.228005 0.0583,0.466614 0,0.296937 -0.0742,0.567361 -0.0689,0.265122 -0.2068,0.482522 -0.13256,0.212097 -0.31284,0.365868 -0.18028,0.148468 -0.34466,0.233307 -0.16438,0.08484 -0.4401,0.180283 0.24921,0.05302 0.39768,0.106049 0.14847,0.04772 0.31815,0.15377 0.16967,0.100747 0.31814,0.265122 0.15377,0.159073 0.24391,0.339356 0.0902,0.180283 0.13787,0.402985 0.053,0.2174 0.053,0.45601 0,0.509034 -0.2227,0.933229 -0.2174,0.424195 -0.60448,0.67341 -0.38708,0.243912 -0.8696,0.328751 -0.47722,0.07954 -2.03613,0.07954 l -1.28319,-0.0053 z m 1.73389,-4.236647 h 0.8537 q 0.54615,0 0.73173,-0.02651 0.19089,-0.02651 0.39768,-0.100747 0.2068,-0.07954 0.34997,-0.238609 0.14316,-0.164376 0.20679,-0.355264 0.0689,-0.19619 0.0689,-0.397682 0,-0.19619 -0.0742,-0.371171 -0.0689,-0.17498 -0.2174,-0.286332 -0.14847,-0.116653 -0.36057,-0.164375 -0.20679,-0.05302 -0.60978,-0.05302 h -1.27258 z m -0.12726,3.197369 h 1.20366 q 0.36587,0 0.56736,-0.02651 0.20679,-0.03181 0.39238,-0.106048 0.18558,-0.07424 0.29163,-0.159074 0.10605,-0.08484 0.18559,-0.217399 0.0848,-0.132561 0.13256,-0.296937 0.0477,-0.169678 0.0477,-0.349961 0,-0.243912 -0.0848,-0.429497 -0.0848,-0.185585 -0.25452,-0.318146 -0.16437,-0.137864 -0.38707,-0.196191 -0.22271,-0.06363 -0.67871,-0.06363 h -1.33622 z" />
    </g>
    <path
       id="path4755"
       d="m 50.533487,292.8 v 2.78757"
       style="fill:none;stroke:#000000;stroke-width:1.32291663;stroke-linecap:butt;stroke-linejoin:miter;stroke-miterlimit:4;stroke-dasharray:none;stroke-opacity:1" />
    <path
       id="path4759"
       d="M 8.956103,227.92984 H 6.0267898 m -4.063242,0 h -2.9765663"
       style="fill:none;stroke:#000000;stroke-width:1.32291663;stroke-linecap:butt;stroke-linejoin:miter;stroke-miterlimit:4;stroke-dasharray:none;stroke-opacity:1" />
    <path
       id="path4761"
       d="M -4.7455296,227.92984 H -44.716512 m -3.16555,0 h -3.827012"
       style="fill:none;stroke:#000000;stroke-width:1.32291663;stroke-linecap:butt;stroke-linejoin:miter;stroke-miterlimit:4;stroke-dasharray:none;stroke-opacity:1" />
  </g>
</svg>
